HIERARCHY
ROOT hip
{
	OFFSET 0.00000 0.00000 0.00000
	CHANNELS 6 Xposition Yposition Zposition Zrotation Yrotation Xrotation 
	JOINT rightuplegdummy
	{
		OFFSET 0 0 0
		CHANNELS 3 Zrotation Yrotation Xrotation
		JOINT rightupleg
		{
			OFFSET -3.52197 -3.41223 0.04002
			CHANNELS 3 Zrotation Yrotation Xrotation
			JOINT rightleg
			{
				OFFSET 0.00006 -17.42390 1.60435
				CHANNELS 3 Zrotation Yrotation Xrotation
				JOINT rightfoot
				{
					OFFSET 0.06153 -16.50078 -1.63901
					CHANNELS 3 Zrotation Yrotation Xrotation
					JOINT righttoes
					{
						OFFSET 0.00298 -1.73825 3.34613
						CHANNELS 3 Zrotation Yrotation Xrotation
						End Site
						{
							OFFSET 0.00480 -0.05416 3.85043
						}
					}
				}
			}
		}
	}
	JOINT spinedummy
	{
		OFFSET 0 0 0
		CHANNELS 3 Zrotation Yrotation Xrotation
		JOINT spine
		{
			OFFSET 0.00000 4.68130 0.00000
			CHANNELS 3 Zrotation Yrotation Xrotation
			JOINT spine1
			{
				OFFSET -0.00000 10.10138 0.05002
				CHANNELS 3 Zrotation Yrotation Xrotation
				JOINT headdummy
				{
					OFFSET 0 0 0
					CHANNELS 3 Zrotation Yrotation Xrotation
					JOINT head
					{
						OFFSET -0.00000 3.43865 0.00438
						CHANNELS 3 Zrotation Yrotation Xrotation
						End Site
						{
							OFFSET -0.11417 5.02924 0.98962
						}
					}
				}
				JOINT leftshoulder1dummy
				{
					OFFSET 0 0 0
					CHANNELS 3 Zrotation Yrotation Xrotation
					JOINT leftshoulder1
					{
						OFFSET 3.53937 -0.14262 -0.08662
						CHANNELS 3 Zrotation Yrotation Xrotation
						JOINT leftarm
						{
							OFFSET 4.04833 -0.00133 0.12681
							CHANNELS 3 Zrotation Yrotation Xrotation
							JOINT leftforearm
							{
								OFFSET 10.33880 -0.01036 -0.55515
								CHANNELS 3 Zrotation Yrotation Xrotation
								JOINT lefthand
								{
									OFFSET 8.69677 0.07543 0.40060
									CHANNELS 3 Zrotation Yrotation Xrotation
									End Site
									{
										OFFSET 5.28377 -0.21905 0.59205
									}
								}
							}
						}
					}
				}
				JOINT rightshoulderdummy
				{
					OFFSET 0 0 0
					CHANNELS 3 Zrotation Yrotation Xrotation
					JOINT rightshoulder
					{
						OFFSET -3.53937 -0.14262 -0.08660
						CHANNELS 3 Zrotation Yrotation Xrotation
						JOINT rightarm
						{
							OFFSET -4.04833 -0.00133 0.12683
							CHANNELS 3 Zrotation Yrotation Xrotation
							JOINT rightforearm
							{
								OFFSET -10.37987 -0.01039 -0.55511
								CHANNELS 3 Zrotation Yrotation Xrotation
								JOINT righthand
								{
									OFFSET -8.67398 0.07538 0.40058
									CHANNELS 3 Zrotation Yrotation Xrotation
									End Site
									{
										OFFSET -5.24810 -0.21916 0.59204
									}
								}
							}
						}
					}
				}
			}
		}
	}
	JOINT leftuplegdummy
	{
		OFFSET 0 0 0
		CHANNELS 3 Zrotation Yrotation Xrotation
		JOINT leftupleg
		{
			OFFSET 3.52197 -3.41223 0.04002
			CHANNELS 3 Zrotation Yrotation Xrotation
			JOINT leftleg
			{
				OFFSET -0.00012 -17.42399 1.60337
				CHANNELS 3 Zrotation Yrotation Xrotation
				JOINT leftfoot
				{
					OFFSET -0.09972 -16.50070 -1.63802
					CHANNELS 3 Zrotation Yrotation Xrotation
					JOINT lefttoes
					{
						OFFSET -0.01575 -1.73823 3.34611
						CHANNELS 3 Zrotation Yrotation Xrotation
						End Site
						{
							OFFSET 0.03150 -0.01868 3.85031
						}
					}
				}
			}
		}
	}
}
MOTION
Frames: 17
Frame Time: 0.033333
-0.1698 38.6011 12.6389 -174.4650 36.3743 -169.0200 0.0000 -0.0000 0.0000 1.3039 -6.2852 -9.8111 -6.6222 -10.0503 27.0917 6.9015 0.3051 -17.5045 0.0000 0.0000 0.0000 0.0000 -0.0000 0.0000 4.2016 0.3716 1.3951 0.5236 0.1086 6.8481 -0.0000 -0.0000 -0.0000 -12.4180 17.3098 -30.1210 -0.0000 -0.0000 -0.0000 -39.1137 -13.6716 7.7765 -36.9582 8.6156 -0.9337 178.1834 -73.1521 -157.7624 5.7889 0.5692 -0.2428 -0.0000 -0.0000 -0.0000 31.9282 6.2201 3.6879 42.1900 1.2119 17.0976 -174.4983 82.4862 -149.7024 -7.6467 6.9437 -0.7563 0.0000 -0.0000 0.0000 9.6616 14.1414 -26.3755 19.4821 25.0197 33.7631 -9.6129 0.8202 -1.7255 0.0000 0.0000 0.0000
0.0723 38.3170 13.0119 -174.2210 39.5954 -169.2490 0.0000 -0.0000 0.0000 1.5640 -5.1467 -10.9004 -6.1575 -8.5651 29.2452 4.9833 0.2777 -19.3770 0.0000 0.0000 0.0000 0.0000 -0.0000 0.0000 3.9042 1.2484 1.8052 0.6168 1.0473 7.8601 -0.0000 -0.0000 -0.0000 -13.1012 18.7225 -30.6492 -0.0000 -0.0000 -0.0000 -40.8803 -14.0374 8.2685 -35.9931 6.3188 -3.2172 177.6139 -73.8711 -154.3147 6.7027 0.6458 -0.2770 -0.0000 -0.0000 -0.0000 31.1024 6.0782 3.5553 39.8215 5.3306 19.1025 -173.7844 84.1757 -150.8933 -8.4779 7.0871 -0.8534 0.0000 -0.0000 0.0000 11.1321 13.9978 -25.8826 21.4657 25.5469 36.2417 -10.6180 0.9135 -1.6255 0.0000 0.0000 0.0000
0.3851 38.3650 13.1401 -175.1760 42.4245 -170.2850 0.0000 -0.0000 0.0000 0.8170 -2.3025 -10.9404 -6.5310 -8.8083 30.1490 4.6276 0.2526 -19.3595 0.0000 0.0000 0.0000 0.0000 -0.0000 0.0000 1.9298 1.6759 2.5044 0.9328 1.4756 7.0540 -0.0000 -0.0000 -0.0000 -12.5915 21.0208 -29.6570 -0.0000 -0.0000 -0.0000 -40.8014 -13.9659 8.2199 -36.9671 7.7447 -5.0351 177.4477 -72.2884 -151.6210 6.4066 0.3081 -0.2807 -0.0000 -0.0000 -0.0000 31.1641 6.0452 3.5489 39.6343 5.1526 19.9972 -173.6980 84.1252 -150.5497 -7.1288 7.3663 -0.7225 0.0000 -0.0000 0.0000 11.1302 13.8004 -23.8353 22.6849 27.5333 36.0418 -11.8271 1.1119 -0.6655 0.0000 0.0000 0.0000
0.6753 38.7990 13.0284 -175.9220 43.4745 -170.9640 0.0000 -0.0000 0.0000 0.2624 -0.6002 -9.3326 -6.4072 -9.4808 27.6806 5.2878 0.2078 -17.2198 0.0000 0.0000 0.0000 0.0000 -0.0000 0.0000 1.2050 1.2025 2.1131 0.2213 1.1723 6.5850 -0.0000 -0.0000 -0.0000 -11.9933 22.9962 -28.7045 -0.0000 -0.0000 -0.0000 -39.1815 -13.5453 7.7298 -38.7663 11.1468 -4.9115 177.9398 -69.9470 -153.7045 5.5839 0.1560 -0.2511 -0.0000 -0.0000 -0.0000 31.5335 6.1404 3.6196 41.2695 1.3340 19.7872 -175.6062 81.6921 -152.5410 -6.2411 7.3060 -0.6215 0.0000 -0.0000 0.0000 11.1016 11.8264 -22.0610 23.9090 30.7380 34.9118 -8.6883 1.0488 2.7954 0.0000 0.0000 0.0000
0.9257 39.4604 12.6934 -176.0380 43.3649 -170.1470 0.0000 -0.0000 0.0000 -0.0525 -1.0814 -7.7171 -5.1686 -9.0845 23.0731 5.7816 0.0504 -13.3018 0.0000 0.0000 0.0000 0.0000 -0.0000 0.0000 0.5226 0.6234 -0.5172 0.9148 0.4147 7.2633 -0.0000 -0.0000 -0.0000 -12.1311 24.0328 -27.7111 -0.0000 -0.0000 -0.0000 -38.0994 -13.2215 7.3948 -39.6739 14.5021 -3.1362 178.3969 -68.4003 -156.7154 5.2413 0.0719 -0.2387 -0.0000 -0.0000 -0.0000 31.5471 6.1469 3.6232 42.5026 -3.7577 19.6265 -176.9384 78.8279 -155.0956 -6.8312 7.1696 -0.6798 0.0000 -0.0000 0.0000 11.2143 10.2303 -21.3679 20.7756 29.6693 31.4147 -3.8469 0.5732 6.5973 0.0000 0.0000 0.0000
1.1096 40.0946 12.2460 -175.9870 43.4841 -168.2590 0.0000 -0.0000 0.0000 -0.6457 -2.2630 -7.2998 -3.5002 -7.2384 18.7497 6.8172 -0.1728 -9.0233 0.0000 0.0000 0.0000 0.0000 -0.0000 0.0000 -1.6023 0.7553 -2.9263 3.7989 -0.0109 6.1687 -0.0000 -0.0000 -0.0000 -12.5161 24.0282 -25.6070 -0.0000 -0.0000 -0.0000 -38.1557 -13.2270 7.4059 -39.9784 17.7007 -0.8448 178.4881 -67.6338 -157.1048 4.1658 -0.1581 -0.1963 -0.0000 -0.0000 -0.0000 30.8457 5.9420 3.4811 43.0158 -10.1153 19.3359 -177.4747 76.8330 -155.9079 -6.8546 7.4425 -0.6961 0.0000 -0.0000 0.0000 11.0010 10.8695 -20.9490 10.8982 18.6750 24.5232 -5.3034 0.7936 6.3720 0.0000 0.0000 0.0000
1.1447 40.5075 11.7700 -176.0490 43.8466 -166.5890 0.0000 -0.0000 0.0000 -1.5546 -3.2032 -7.4087 -2.2823 -5.2929 15.7473 8.2582 -0.4094 -5.9839 0.0000 0.0000 0.0000 0.0000 -0.0000 0.0000 -1.5431 0.6043 -4.4999 3.3363 -0.0451 4.7887 -0.0000 -0.0000 -0.0000 -12.0529 24.1761 -24.1345 -0.0000 -0.0000 -0.0000 -36.4265 -12.8090 6.9295 -41.2433 19.4360 1.6103 178.4341 -67.5618 -156.5757 3.0390 -0.4553 -0.1480 -0.0000 -0.0000 -0.0000 30.8307 6.0330 3.5129 42.9115 -15.0678 19.1157 -177.4744 76.3345 -155.5177 -5.1979 7.9705 -0.5313 0.0000 -0.0000 0.0000 11.1857 9.1432 -20.0146 2.5495 5.1224 17.7638 -12.0943 1.5351 3.2711 0.0000 0.0000 0.0000
0.9974 40.5910 11.2891 -176.1930 43.8887 -165.8000 0.0000 -0.0000 0.0000 -2.4577 -3.8527 -7.4799 -1.8517 -4.4405 14.5660 9.1203 -0.5220 -5.0317 0.0000 0.0000 0.0000 0.0000 -0.0000 0.0000 -1.0363 0.4343 -4.7830 2.6242 -0.1035 3.9585 -0.0000 -0.0000 -0.0000 -11.7896 23.9339 -24.2057 -0.0000 -0.0000 -0.0000 -35.3980 -12.6188 6.6787 -41.1615 18.6695 4.3347 178.3965 -68.5357 -156.7349 3.4419 -0.6544 -0.1725 -0.0000 -0.0000 -0.0000 30.8228 6.1453 3.5534 41.7463 -17.4741 19.1499 -177.3882 76.9621 -155.5716 -3.6896 8.2223 -0.3630 0.0000 -0.0000 0.0000 11.8140 3.3482 -19.4736 0.4668 -0.0547 14.0757 -15.8989 1.6862 0.7000 0.0000 0.0000 0.0000
0.6874 40.2851 10.8318 -176.4190 44.1421 -165.7780 0.0000 -0.0000 0.0000 -3.4148 -3.3388 -7.9585 -2.2928 -5.0262 15.7833 9.4904 -0.4000 -6.8278 0.0000 0.0000 0.0000 0.0000 -0.0000 0.0000 -0.3754 0.4860 -3.5270 1.5730 0.1175 3.0291 -0.0000 -0.0000 -0.0000 -11.5438 23.3945 -25.2580 -0.0000 -0.0000 -0.0000 -35.0560 -12.6604 6.6396 -40.1322 15.9217 6.7270 178.3431 -69.9031 -157.0796 3.7653 -0.6707 -0.1896 -0.0000 -0.0000 -0.0000 30.6852 6.2093 3.5638 39.8249 -18.1184 19.3636 -177.3921 77.6748 -156.3006 -3.3502 7.9456 -0.3171 0.0000 -0.0000 0.0000 11.6518 -1.3842 -20.2499 1.1027 1.5259 15.4780 -13.4921 1.1715 -1.5731 0.0000 0.0000 0.0000
0.2826 39.6603 10.4241 -177.8060 44.9413 -167.0710 0.0000 -0.0000 0.0000 -5.4338 -1.6607 -9.0051 -3.3688 -6.7580 19.2516 9.6600 -0.0618 -11.0991 0.0000 0.0000 0.0000 0.0000 -0.0000 0.0000 -1.3702 0.6651 -1.6793 1.1038 0.4180 2.5339 -0.0000 -0.0000 -0.0000 -11.9338 22.9388 -26.9869 -0.0000 -0.0000 -0.0000 -35.9343 -13.0059 6.9298 -37.7038 11.7715 8.3205 178.3982 -71.1747 -158.3396 3.6969 -0.6435 -0.1851 -0.0000 -0.0000 -0.0000 30.3776 6.2442 3.5469 37.8957 -16.9804 19.2771 -177.3162 78.3887 -156.6740 -3.8441 7.6994 -0.3680 0.0000 -0.0000 0.0000 9.9093 -4.8190 -21.5993 2.9613 5.5412 19.6725 -10.0420 0.5840 -5.0788 0.0000 0.0000 0.0000
-0.0996 39.0310 10.0624 179.5530 45.1526 -169.5630 0.0000 -0.0000 0.0000 -8.1584 -0.9564 -9.6791 -4.6279 -8.1844 22.8132 9.7312 0.2822 -15.3256 0.0000 0.0000 0.0000 0.0000 -0.0000 0.0000 -4.2550 0.5913 -0.5927 1.9491 0.2126 3.5415 -0.0000 -0.0000 -0.0000 -12.8944 22.5046 -29.0969 -0.0000 -0.0000 -0.0000 -38.1960 -13.5208 7.5440 -32.9138 5.6328 9.6811 178.2455 -73.8799 -158.6553 5.3157 -0.6927 -0.2710 -0.0000 -0.0000 -0.0000 30.4357 6.2196 3.5436 36.9906 -13.6418 18.2428 -176.3078 80.8884 -154.5200 -5.2814 7.6123 -0.5276 0.0000 -0.0000 0.0000 7.3004 -8.5204 -23.0280 5.5712 9.2032 24.0948 -8.6037 0.2599 -8.5663 0.0000 0.0000 0.0000
-0.3594 38.6794 9.6975 178.1280 44.6786 -171.1270 0.0000 -0.0000 0.0000 -9.7893 -0.7753 -9.4014 -5.4962 -9.1523 24.5196 10.1286 0.4736 -17.4126 0.0000 0.0000 0.0000 0.0000 -0.0000 0.0000 -5.6004 0.4907 -0.8810 2.6216 -0.0309 5.3581 -0.0000 -0.0000 -0.0000 -13.2370 22.0628 -30.0251 -0.0000 -0.0000 -0.0000 -39.9828 -13.8946 8.0350 -28.7352 -0.9803 10.8364 177.2671 -77.9435 -155.9031 6.8615 -0.5921 -0.3463 -0.0000 -0.0000 -0.0000 30.8173 6.1784 3.5651 38.3032 -10.6339 16.0758 -172.9919 84.2795 -148.9147 -6.5074 7.4555 -0.6581 0.0000 -0.0000 0.0000 5.4254 -9.4443 -24.1426 6.4973 9.4532 27.6170 -7.8785 0.1323 -10.3065 0.0000 0.0000 0.0000
-0.4584 38.7186 9.3186 178.8660 45.0863 -171.0810 0.0000 -0.0000 0.0000 -9.8768 -0.3001 -8.4699 -5.3632 -9.1056 24.0130 10.8778 0.4519 -16.7448 0.0000 0.0000 0.0000 0.0000 -0.0000 0.0000 -3.8592 0.7359 -0.8449 1.6578 0.3743 4.9776 -0.0000 -0.0000 -0.0000 -12.9742 22.5867 -28.4959 -0.0000 -0.0000 -0.0000 -39.6059 -13.8237 7.9349 -29.3098 -3.6381 11.4157 176.5580 -79.3034 -153.9047 6.2631 -0.5144 -0.3125 -0.0000 -0.0000 -0.0000 31.0618 6.2054 3.5985 41.1914 -10.9071 14.5171 -172.2850 84.5767 -147.3779 -5.6495 7.6550 -0.5707 0.0000 -0.0000 0.0000 5.0120 -7.6533 -23.7230 5.7305 7.9204 28.5890 -7.8029 0.1164 -10.5524 0.0000 0.0000 0.0000
-0.3871 39.1545 8.9787 -179.8200 46.8048 -170.3300 0.0000 -0.0000 0.0000 -9.6539 -0.3231 -7.6070 -4.0032 -7.3335 21.7624 11.5410 0.1471 -13.2928 0.0000 0.0000 0.0000 0.0000 -0.0000 0.0000 -2.1401 1.1306 -2.1744 1.1030 0.8493 5.0376 -0.0000 -0.0000 -0.0000 -13.4455 24.4098 -26.0884 -0.0000 -0.0000 -0.0000 -38.2608 -13.5044 7.5480 -32.6973 -2.2747 11.1553 177.5962 -76.5755 -156.2532 6.1872 -0.2439 -0.2960 -0.0000 -0.0000 -0.0000 30.5980 6.2013 3.5525 43.6363 -12.1290 15.4077 -175.0133 82.0928 -150.8752 -4.0071 8.2594 -0.4009 0.0000 -0.0000 0.0000 5.4295 -6.7303 -21.3555 5.5998 8.6362 25.8059 -8.4265 0.2147 -9.1715 0.0000 0.0000 0.0000
-0.1559 39.7998 8.7564 -179.0310 48.7695 -169.2520 0.0000 -0.0000 0.0000 -9.6113 -1.1034 -7.4118 -2.5055 -4.9839 19.1143 11.9633 -0.2807 -8.9835 0.0000 0.0000 0.0000 0.0000 -0.0000 0.0000 -1.8966 1.3678 -4.9468 1.6381 0.9966 5.5615 -0.0000 -0.0000 -0.0000 -13.3554 26.6482 -23.1900 -0.0000 -0.0000 -0.0000 -37.4575 -13.2077 7.2768 -34.8809 0.6751 10.8837 178.1929 -73.0591 -157.7748 7.1619 0.0855 -0.3255 -0.0000 -0.0000 -0.0000 30.7201 6.2316 3.5753 43.7744 -13.1291 17.6207 -176.0181 79.6282 -151.3946 -3.7016 8.7803 -0.3774 0.0000 -0.0000 0.0000 5.8600 -6.1180 -18.4016 5.2790 10.1622 20.4359 -8.9697 0.4659 -5.8475 0.0000 0.0000 0.0000
0.1416 40.3918 8.7320 -178.8740 50.2194 -168.5160 0.0000 -0.0000 0.0000 -9.5577 -1.4360 -7.5429 -2.0388 -4.2597 17.6279 11.7393 -0.5363 -6.3554 0.0000 0.0000 0.0000 0.0000 -0.0000 0.0000 -1.7876 1.2678 -7.3126 1.2976 1.0002 5.4925 -0.0000 -0.0000 -0.0000 -11.7194 28.5793 -20.1704 -0.0000 -0.0000 -0.0000 -36.0673 -12.7421 6.8409 -36.1795 3.3372 10.9312 178.2543 -71.1714 -157.1269 6.3373 -0.2047 -0.3014 -0.0000 -0.0000 -0.0000 31.1918 6.3138 3.6513 43.2003 -13.8764 19.3727 -176.1359 78.1094 -149.8235 -3.9662 9.0785 -0.4175 0.0000 -0.0000 0.0000 5.5291 -1.9487 -15.9064 3.5652 7.2860 14.9826 -9.6898 0.8051 -2.0057 0.0000 0.0000 0.0000
0.3835 40.7533 8.8969 -179.4490 50.8736 -169.1620 0.0000 -0.0000 0.0000 -9.6847 -1.1265 -7.2541 -2.2401 -4.7367 17.5634 10.9028 -0.6086 -5.1698 0.0000 0.0000 0.0000 0.0000 -0.0000 0.0000 -2.2117 0.9724 -7.6609 1.1504 0.7661 4.7193 -0.0000 -0.0000 -0.0000 -10.6130 29.9264 -18.2516 -0.0000 -0.0000 -0.0000 -35.4284 -12.5484 6.6546 -35.5636 5.1258 10.5946 178.3680 -70.4648 -157.5966 4.6610 -0.5774 -0.2333 -0.0000 -0.0000 -0.0000 30.8830 6.2766 3.6076 42.9999 -13.7959 20.6405 -176.3021 77.4441 -149.8555 -3.9423 9.2033 -0.4177 0.0000 -0.0000 0.0000 5.3077 1.8719 -14.0727 1.8056 3.7310 11.8267 -10.6463 1.1221 0.7136 0.0000 0.0000 0.0000
